<?xml version="1.0" encoding="utf-8"?>
<!-- Generator: Adobe Illustrator 19.2.1, SVG Export Plug-In . SVG Version: 6.00 Build 0)  -->
<svg version="1.1" id="Layer_1" xmlns="http://www.w3.org/2000/svg" xmlns:xlink="http://www.w3.org/1999/xlink" x="0px" y="0px"
	 viewBox="0 0 32.7 47.7" style="enable-background:new 0 0 32.7 47.7;" xml:space="preserve">
<style type="text/css">
	.st0{fill:#FFFFFF;}
</style>
<g>
	<path d="M9.1,23.9C10.4,25,11.7,26,13,27c6,4.8,12.1,9.5,18.1,14.3c0.9,0.7,1.5,1.6,1.6,2.7c0,1.4-0.5,2.6-1.8,3.2
		c-1.4,0.7-2.7,0.6-3.9-0.3c-2.6-2-5.1-4-7.7-6c-5.9-4.7-11.8-9.4-17.8-14c-2.1-1.6-1.9-4.5,0-5.9C9.9,14.3,18.4,7.5,26.9,0.8
		c1.5-1.2,3.4-1.1,4.8,0.2c1.3,1.2,1.4,3.3,0.1,4.8c-0.4,0.5-1,0.9-1.5,1.3c-7,5.5-13.9,11-20.9,16.5C9.3,23.8,9.2,23.8,9.1,23.9z
		 M31.8,3.4c0-0.7-0.2-1.2-0.6-1.6c-0.9-1-2.6-1.4-4-0.2c-2.6,2.2-5.3,4.3-8,6.4C13.5,12.5,7.8,17.1,2,21.6c-1.5,1.2-1.7,3.3,0,4.7
		c8.4,6.6,16.8,13.3,25.3,19.9c0.4,0.3,0.9,0.5,1.4,0.6c1.1,0.2,2.2-0.3,2.7-1.1c0.7-1.2,0.6-2.3-0.3-3.3c-0.2-0.2-0.4-0.4-0.6-0.5
		C23.3,36.2,16,30.5,8.7,24.7c-0.6-0.5-0.6-1.1,0-1.6c4.1-3.2,8.2-6.4,12.2-9.7c3.2-2.6,6.5-5.1,9.7-7.7C31.4,5.2,31.8,4.4,31.8,3.4
		z"/>
	<path class="st0" d="M31.8,3.4c0,1-0.4,1.8-1.2,2.4c-3.2,2.6-6.5,5.1-9.7,7.7c-4.1,3.2-8.2,6.4-12.2,9.7c-0.6,0.5-0.6,1.1,0,1.6
		c7.3,5.7,14.5,11.5,21.8,17.2c0.2,0.2,0.4,0.3,0.6,0.5c0.9,1,1,2,0.3,3.3c-0.5,0.8-1.6,1.3-2.7,1.1c-0.5-0.1-1-0.3-1.4-0.6
		C18.9,39.6,10.5,32.9,2,26.3c-1.7-1.3-1.5-3.5,0-4.7c5.8-4.5,11.5-9.1,17.2-13.7c2.7-2.1,5.4-4.2,8-6.4c1.4-1.1,3.1-0.7,4,0.2
		C31.6,2.2,31.8,2.7,31.8,3.4z"/>
</g>
</svg>
